<?xml version="1.0" encoding="utf-8"?>
<!-- Generator: Adobe Illustrator 21.1.0, SVG Export Plug-In . SVG Version: 6.00 Build 0)  -->
<svg version="1.1" xmlns="http://www.w3.org/2000/svg" xmlns:xlink="http://www.w3.org/1999/xlink" x="0px" y="0px"
	 viewBox="0 0 250 79" style="enable-background:new 0 0 250 79;" xml:space="preserve">
<style type="text/css">
	.st0{fill:#BDC0C3;}
	.st1{fill:#E63C2F;}
</style>
<g id="Layer_2">
</g>
<g id="Layer_1">
	<g>
		<path class="st0" d="M34,2.8c9.8,0,15.3,6.3,15.3,15.7v24.4c0,6.1-3.3,9.3-9.3,9.3H12.2C3.4,52.2,0,46.9,0,36.7
			c0-9.3,3.4-15.4,12.2-15.4h22.5v-2.1c0-3.9-2.2-6-6.2-6h-20l-5-10.4H34z M19.1,31.4c-2.8,0-4.4,2-4.4,5.4c0,3.2,1.3,5.3,4.3,5.3
			h12.4c2.3,0,3.3-0.9,3.3-3.3v-7.5H19.1z"/>
		<g>
			<path class="st0" d="M125.7,52.2c-16.8,0-20.8-9.8-20.8-24.7s4-24.7,20.8-24.7h21.6l-5.5,10.7h-10.5c-9.5,0-11.5,5.6-11.5,14
				s2,14,11.5,14h11l5,10.7H125.7z"/>
		</g>
		<path class="st0" d="M234.7,2.8c9.8,0,15.3,6.3,15.3,15.7v24.4c0,6.1-3.3,9.3-9.3,9.3H213c-8.9,0-12.2-5.2-12.2-15.5
			c0-9.3,3.4-15.4,12.2-15.4h22.5v-2.1c0-3.9-2.2-6-6.2-6h-20l-5-10.4H234.7z M219.9,31.4c-2.8,0-4.4,2-4.4,5.4
			c0,3.2,1.3,5.3,4.3,5.3h12.4c2.3,0,3.3-0.9,3.3-3.3v-7.5H219.9z"/>
		<g>
			<path class="st1" d="M183.6,30.3l-0.2-0.4l-0.2,0.4c-4.9,9.9-12.4,14.8-21.8,14.2c-8.4-0.5-13.1-5.8-15.6-10.1l-0.9-1.7l0.5,1.8
				c3.3,11.9,14.2,20.2,26.5,20.2c4.9,0,9.7-1.3,14-3.8l0.1-0.1l0-0.1c0.9-4.1,1.8-12.1-1.5-19C184.2,31.4,183.9,30.9,183.6,30.3z"
				/>
			<path class="st1" d="M195.4,13.8c-2.5-4.3-6-7.8-10.3-10.2l-0.1-0.1l-0.1,0c-4,1.3-11.4,4.4-15.7,10.8c-0.3,0.4-0.6,0.9-0.9,1.5
				l-0.2,0.4l0.5,0c11-0.7,19,3.4,23.2,11.8c3.7,7.5,1.5,14.2-1,18.5l-1,1.6l1.3-1.4C199.9,38.1,201.6,24.5,195.4,13.8z"/>
			<path class="st1" d="M163.5,36.3l0.5,0l-0.3-0.4c-6.1-9.2-6.6-18.1-1.4-26c4.6-6.9,11.4-8.4,16.4-8.4c0,0,0.1,0,0.1,0l1.9,0
				l-1.8-0.5C167-2,154.3,3.3,148.1,14c-2.5,4.2-3.7,9.1-3.7,14l0,0.1l0.1,0.1c3.1,2.8,9.5,7.6,17.2,8.2
				C162.3,36.3,162.9,36.3,163.5,36.3z"/>
		</g>
		<path class="st0" d="M88.4,36.8h1.3c7.8,0,11.8-5.8,11.8-17.4c0-7.7-1.6-16.6-13.7-16.6H62.4c-5.3,0-8.2,3-8.2,7.8v45.6l14.2-6.2
			v-34c0-1.8,0.4-2.2,2.2-2.2H82c4,0,5,1.6,5,6c0,4.8-1,6.1-4.6,6.1h-4c-2.6,0-8,0-8,5.3v1.1c0,2.6,1.9,4.6,3.6,6.4
			c0.3,0.3,0.6,0.7,0.9,1l11,12.7h17.9L88.4,36.8z"/>
		<g>
			<path class="st0" d="M170.1,66.3c-3.1,0-4.1,1-4.1,4.6s1,4.6,4.1,4.6h1.7c0.8,0,1-0.3,1-1v-3.7h4v5.5c0,1.7-0.9,2.4-2.3,2.4h-5.9
				c-5.2,0-6.6-2.9-6.6-7.7s1.5-7.7,6.6-7.7h7.8v3.1H170.1z"/>
			<path class="st0" d="M180,65.6c0-1.7,0.9-2.4,2.3-2.4h8.2c3.2,0,4.1,1.9,4.1,5.1c0,2.7-0.7,5.3-3.5,5.3h-1.1v0.1l4.9,4.9h-4.9
				l-3.5-4c-0.6-0.6-1.4-1.3-1.4-2.2v-0.4c0-1.1,0.8-1.4,2.3-1.4h1.3c1.5,0,1.8-0.7,1.8-2.3c0-1.6-0.5-2.1-2-2.1H185
				c-0.8,0-1,0.3-1,1v11.3h-4V65.6z"/>
			<path class="st0" d="M213.7,70.9c0,6.4-2.1,7.9-8.2,7.9s-8.2-1.5-8.2-7.9c0-6.4,2.1-7.9,8.2-7.9S213.7,64.5,213.7,70.9z
				 M205.5,75.7c3.2,0,4.1-1.2,4.1-4.8s-0.9-4.8-4.1-4.8c-3.2,0-4.1,1.2-4.1,4.8S202.3,75.7,205.5,75.7z"/>
			<path class="st0" d="M226.9,72.5v-9.3h4v9.5c0,4.6-2.7,6.1-7.2,6.1s-7.2-1.4-7.2-6.1v-9.5h4v9.3c0,2.2,1,3.2,3.2,3.2
				C225.9,75.7,226.9,74.7,226.9,72.5z"/>
			<path class="st0" d="M234.6,78.6v-13c0-1.7,0.9-2.4,2.3-2.4h8.2c3.4,0,4.2,2.1,4.2,5.2s-0.7,5.3-4.2,5.3h-6.6v4.9H234.6z
				 M243.1,70.6c1.7,0,2.2-0.6,2.2-2.2s-0.5-2.1-2.2-2.1h-3.5c-0.8,0-1,0.3-1,1v3.3H243.1z"/>
		</g>
	</g>
</g>
</svg>
