<?xml version="1.0" encoding="UTF-8" standalone="no"?>
<svg width="114px" height="115px" viewBox="0 0 114 115" version="1.1" xmlns="http://www.w3.org/2000/svg" xmlns:xlink="http://www.w3.org/1999/xlink">
    <!-- Generator: Sketch 45.2 (43514) - http://www.bohemiancoding.com/sketch -->
    <title>Corporations</title>
    <desc>Created with Sketch.</desc>
    <defs>
        <polygon id="path-1" points="15 0.625 1415 0.625 1415 1993.76562 15 1993.76562"></polygon>
    </defs>
    <g id="Comps" stroke="none" stroke-width="1" fill="none" fill-rule="evenodd">
        <g id="Desktop---ITAD---Homepage" transform="translate(-302.000000, -1954.000000)">
            <g id="Group-Copy" transform="translate(-15.000000, 892.000000)">
                <mask id="mask-2" fill="white">
                    <use xlink:href="#path-1"></use>
                </mask>
                <g id="Duplicate-control"></g>
            </g>
            <g id="Icons" transform="translate(191.000000, 1635.000000)" fill="#000000">
                <g id="Corporations" transform="translate(111.000000, 319.000000)">
                    <path d="M63.8472754,20.9961257 L61.2606836,34.5128296 L52.8517438,34.5128296 L50.4021417,20.9961257 L63.8472754,20.9961257 Z M63.079014,36.7130542 L66.5082332,18.7959011 L47.7674636,18.7959011 L51.0149616,36.7130542 L63.079014,36.7130542 Z" id="Fill-1"></path>
                    <path d="M57.0843385,101.956284 L47.5884263,91.3538294 L53.0959771,40.8023408 L61.0508934,40.8023408 L66.6848104,91.3493563 L57.0843385,101.956284 Z M51.1222051,38.6026754 L45.2948249,92.0907789 L57.0759514,105.24404 L68.9812074,92.0907789 L63.0196331,38.6026754 L51.1222051,38.6026754 Z" id="Fill-2"></path>
                    <g id="Group-5" transform="translate(0.000000, 0.422712)">
                        <path d="M56.9643466,3.49122808 C27.4041751,3.49122808 3.35490921,27.5404939 3.35490921,57.1006655 C3.35490921,86.6613961 27.4041751,110.710103 56.9643466,110.710103 C86.5245181,110.710103 110.573784,86.6613961 110.573784,57.1006655 C110.573784,27.5404939 86.5245181,3.49122808 56.9643466,3.49122808 M56.9643466,114.064956 C25.5539735,114.064956 5.59142216e-05,88.5110386 5.59142216e-05,57.1006655 C5.59142216e-05,25.6908515 25.5539735,0.136374786 56.9643466,0.136374786 C88.3747197,0.136374786 113.928637,25.6908515 113.928637,57.1006655 C113.928637,88.5110386 88.3747197,114.064956 56.9643466,114.064956" id="Fill-3"></path>
                    </g>
                </g>
            </g>
        </g>
    </g>
</svg>