<?xml version="1.0" encoding="UTF-8" standalone="no"?>
<svg width="114px" height="115px" viewBox="0 0 114 115" version="1.1" xmlns="http://www.w3.org/2000/svg" xmlns:xlink="http://www.w3.org/1999/xlink">
    <!-- Generator: Sketch 45.2 (43514) - http://www.bohemiancoding.com/sketch -->
    <title>Electronic</title>
    <desc>Created with Sketch.</desc>
    <defs>
        <polygon id="path-1" points="15 0.625 1415 0.625 1415 1993.76562 15 1993.76562"></polygon>
        <polygon id="path-3" points="5.59142216e-05 0.136430701 113.928581 0.136430701 113.928581 114.064788 5.59142216e-05 114.064788"></polygon>
    </defs>
    <g id="Comps" stroke="none" stroke-width="1" fill="none" fill-rule="evenodd">
        <g id="Desktop---ITAD---Homepage" transform="translate(-982.000000, -1954.000000)">
            <g id="Group-Copy" transform="translate(-15.000000, 892.000000)">
                <mask id="mask-2" fill="white">
                    <use xlink:href="#path-1"></use>
                </mask>
                <g id="Duplicate-control"></g>
            </g>
            <g id="Icons" transform="translate(191.000000, 1635.000000)">
                <g id="Electronic" transform="translate(791.000000, 319.000000)">
                    <path d="M77.1978582,46.3275046 L77.1978582,57.8072535 C77.1978582,61.3773765 75.8313146,64.7764021 73.3498415,67.3780908 C70.8767555,69.9713924 67.5632787,71.4995281 64.0194353,71.6812493 L62.9755168,71.7343678 L62.9755168,82.2697254 L61.2309931,82.2697254 L61.2309931,99.7255863 L52.8304404,99.7255863 L52.8304404,82.2697254 L51.0859167,82.2697254 L51.0859167,71.7343678 L50.0419982,71.6812493 C46.4981549,71.4995281 43.1846781,69.9713924 40.7115921,67.3780908 C38.2301189,64.7764021 36.8635753,61.3773765 36.8635753,57.8072535 L36.8635753,46.3275046 L41.7722848,46.3275046 L41.7722848,23.1616835 C41.7722848,22.9564783 41.918221,22.7825851 42.0909959,22.7825851 L45.3921715,22.7825851 C45.5649465,22.7825851 45.7114418,22.9564783 45.7114418,23.1616835 L45.7114418,46.3275046 L55.0614179,46.3275046 L55.0614179,29.6253675 C55.0614179,28.4679431 55.9448626,27.5257885 57.0307168,27.5257885 C58.116571,27.5257885 59.0005748,28.4679431 59.0005748,29.6253675 L59.0005748,46.3275046 L68.3505509,46.3275046 L68.3505509,23.1616835 C68.3505509,22.9564783 68.4964871,22.7825851 68.669262,22.7825851 L71.9704376,22.7825851 C72.1432126,22.7825851 72.2897078,22.9564783 72.2897078,23.1616835 L72.2897078,46.3275046 L77.1978582,46.3275046 Z M74.4893733,23.1616835 C74.4893733,21.7397848 73.3593469,20.5823605 71.9704376,20.5823605 L68.669262,20.5823605 C67.2803527,20.5823605 66.1503263,21.7397848 66.1503263,23.1616835 L66.1503263,44.12728 L61.2002403,44.12728 L61.2002403,29.6253675 C61.2002403,27.2546045 59.3299096,25.3255639 57.0307168,25.3255639 C54.731524,25.3255639 52.8611933,27.2546045 52.8611933,29.6253675 L52.8611933,44.12728 L47.9111072,44.12728 L47.9111072,23.1616835 C47.9111072,21.7397848 46.7810808,20.5823605 45.3921715,20.5823605 L42.0909959,20.5823605 C40.7020866,20.5823605 39.5720602,21.7397848 39.5720602,23.1616835 L39.5720602,44.12728 L34.6639099,44.12728 L34.6639099,57.8072535 C34.6639099,61.945465 36.2462823,65.8835037 39.119155,68.8961619 C41.7381772,71.6426685 45.1741061,73.3575577 48.8856921,73.7908929 L48.8856921,83.254934 C48.8856921,83.9247864 49.4308558,84.4693909 50.100149,84.4693909 L50.630775,84.4693909 L50.630775,100.711354 C50.630775,101.380647 51.1753795,101.925811 51.8446727,101.925811 L62.2167608,101.925811 C62.8866132,101.925811 63.4312177,101.380647 63.4312177,100.711354 L63.4312177,84.4693909 L63.9612845,84.4693909 C64.6311369,84.4693909 65.1757414,83.9247864 65.1757414,83.254934 L65.1757414,73.7908929 C68.8873275,73.3575577 72.3232564,71.6426685 74.9422785,68.8961619 C77.8151512,65.8835037 79.3980828,61.945465 79.3980828,57.8072535 L79.3980828,44.12728 L74.4893733,44.12728 L74.4893733,23.1616835 Z" id="Fill-1" fill="#000000"></path>
                    <g id="Group-5" transform="translate(0.000000, 0.422712)">
                        <mask id="mask-4" fill="white">
                            <use xlink:href="#path-3"></use>
                        </mask>
                        <g id="Clip-4"></g>
                        <path d="M56.9643466,3.49106034 C27.4041751,3.49106034 3.35490921,27.5403262 3.35490921,57.1004977 C3.35490921,86.6612284 27.4041751,110.709935 56.9643466,110.709935 C86.5245181,110.709935 110.573784,86.6612284 110.573784,57.1004977 C110.573784,27.5403262 86.5245181,3.49106034 56.9643466,3.49106034 M56.9643466,114.064788 C25.5539735,114.064788 5.59142216e-05,88.5108708 5.59142216e-05,57.1004977 C5.59142216e-05,25.6906837 25.5539735,0.136207044 56.9643466,0.136207044 C88.3747197,0.136207044 113.928637,25.6906837 113.928637,57.1004977 C113.928637,88.5108708 88.3747197,114.064788 56.9643466,114.064788" id="Fill-3" fill="#000000" mask="url(#mask-4)"></path>
                    </g>
                </g>
            </g>
        </g>
    </g>
</svg>