<?xml version="1.0" encoding="UTF-8" standalone="no"?>
<svg width="114px" height="115px" viewBox="0 0 114 115" version="1.1" xmlns="http://www.w3.org/2000/svg" xmlns:xlink="http://www.w3.org/1999/xlink">
    <!-- Generator: Sketch 45.2 (43514) - http://www.bohemiancoding.com/sketch -->
    <title>Leasing Companies</title>
    <desc>Created with Sketch.</desc>
    <defs>
        <polygon id="path-1" points="15 0.625 1415 0.625 1415 1993.76562 15 1993.76562"></polygon>
    </defs>
    <g id="Comps" stroke="none" stroke-width="1" fill="none" fill-rule="evenodd">
        <g id="Desktop---ITAD---Homepage" transform="translate(-868.000000, -1723.000000)">
            <g id="Group-Copy" transform="translate(-15.000000, 892.000000)">
                <mask id="mask-2" fill="white">
                    <use xlink:href="#path-1"></use>
                </mask>
                <g id="Duplicate-control"></g>
            </g>
            <g id="Icons" transform="translate(191.000000, 1635.000000)" fill="#000000">
                <g id="Leasing-Companies" transform="translate(677.000000, 88.000000)">
                    <path d="M82.5293911,50.8605824 L79.7795297,50.8605824 L79.7795297,53.6104438 L79.7795297,90.3572703 L64.8202388,90.3572703 L64.8202388,69.663976 L64.8202388,66.9141146 L62.0703774,66.9141146 L51.8755374,66.9141146 L49.125676,66.9141146 L49.125676,69.663976 L49.125676,90.3572703 L34.1663851,90.3572703 L34.1663851,53.6104438 L34.1663851,50.8605824 L31.4165237,50.8605824 L28.8198672,50.8605824 L56.9642907,25.6326448 L85.1087141,50.8605824 L82.5293911,50.8605824 Z M21.6320941,53.6104438 L31.4165237,53.6104438 L31.4165237,93.1071317 L51.8755374,93.1071317 L51.8755374,69.663976 L62.0703774,69.663976 L62.0703774,93.1071317 L82.5293911,93.1071317 L82.5293911,53.6104438 L92.2964873,53.6104438 L56.9642907,21.9395104 L21.6320941,53.6104438 Z" id="Fill-1"></path>
                    <g id="Group-4" transform="translate(0.000000, 0.422712)">
                        <path d="M56.9644584,3.49122808 C27.4042869,3.49122808 3.35502104,27.5404939 3.35502104,57.1006655 C3.35502104,86.6613961 27.4042869,110.710103 56.9644584,110.710103 C86.52463,110.710103 110.573896,86.6613961 110.573896,57.1006655 C110.573896,27.5404939 86.52463,3.49122808 56.9644584,3.49122808 M56.9644584,114.064956 C25.5540853,114.064956 0.000167742665,88.5110386 0.000167742665,57.1006655 C0.000167742665,25.6908515 25.5540853,0.136374786 56.9644584,0.136374786 C88.3748315,0.136374786 113.928749,25.6908515 113.928749,57.1006655 C113.928749,88.5110386 88.3748315,114.064956 56.9644584,114.064956" id="Fill-2"></path>
                    </g>
                </g>
            </g>
        </g>
    </g>
</svg>