<?xml version="1.0" encoding="UTF-8" standalone="no"?>
<svg width="114px" height="115px" viewBox="0 0 114 115" version="1.1" xmlns="http://www.w3.org/2000/svg" xmlns:xlink="http://www.w3.org/1999/xlink">
    <!-- Generator: Sketch 45.2 (43514) - http://www.bohemiancoding.com/sketch -->
    <title>Manufacturers</title>
    <desc>Created with Sketch.</desc>
    <defs>
        <polygon id="path-1" points="15 0.625 1415 0.625 1415 1993.76562 15 1993.76562"></polygon>
        <polygon id="path-3" points="0.000167742665 0.136430701 113.928581 0.136430701 113.928581 114.064788 0.000167742665 114.064788"></polygon>
    </defs>
    <g id="Comps" stroke="none" stroke-width="1" fill="none" fill-rule="evenodd">
        <g id="Desktop---ITAD---Homepage" transform="translate(-529.000000, -1954.000000)">
            <g id="Group-Copy" transform="translate(-15.000000, 892.000000)">
                <mask id="mask-2" fill="white">
                    <use xlink:href="#path-1"></use>
                </mask>
                <g id="Duplicate-control"></g>
            </g>
            <g id="Icons" transform="translate(191.000000, 1635.000000)">
                <g id="Manufacturers" transform="translate(338.000000, 319.000000)">
                    <path d="M83.856627,75.3086844 L73.9866486,85.1786628 L81.3371321,92.5291464 L70.8610436,89.8625972 L67.6521264,77.0984986 L38.973163,48.4200944 L38.7584524,48.2048246 L25.9943539,44.9959075 L23.3272455,34.5192598 L30.6782882,41.8703025 L40.5482666,32.0003241 L33.1972239,24.6492814 L43.6738716,27.3158306 L46.8833479,40.0804882 L75.5617522,68.7588925 L75.7764628,68.9736031 L88.5405613,72.1830794 L91.2071105,82.659168 L83.856627,75.3086844 Z M76.9020161,66.9886482 L48.8683028,38.9543758 L45.487729,25.5075647 L31.1725699,21.864194 L29.2368196,23.7999443 L37.4366402,32.0003241 L30.6782882,38.758676 L22.4779085,30.5588554 L20.5421581,32.4946058 L24.1855288,46.8097648 L37.63234,50.1903386 L65.6666124,78.2240519 L69.0471862,91.6714222 L83.3623452,95.3147929 L85.2980956,93.3790426 L77.098275,85.1786628 L83.856627,78.4197517 L92.0570067,86.6201314 L93.992757,84.6843811 L90.3493864,70.3692221 L76.9020161,66.9886482 Z" id="Fill-1" fill="#000000"></path>
                    <g id="Group-4" transform="translate(0.000000, 0.422712)">
                        <mask id="mask-4" fill="white">
                            <use xlink:href="#path-3"></use>
                        </mask>
                        <g id="Clip-3"></g>
                        <path d="M56.9644584,3.49106034 C27.4042869,3.49106034 3.35502104,27.5403262 3.35502104,57.1004977 C3.35502104,86.6612284 27.4042869,110.709935 56.9644584,110.709935 C86.52463,110.709935 110.573896,86.6612284 110.573896,57.1004977 C110.573896,27.5403262 86.52463,3.49106034 56.9644584,3.49106034 M56.9644584,114.064788 C25.5540853,114.064788 0.000167742665,88.5108708 0.000167742665,57.1004977 C0.000167742665,25.6906837 25.5540853,0.136207044 56.9644584,0.136207044 C88.3748315,0.136207044 113.928749,25.6906837 113.928749,57.1004977 C113.928749,88.5108708 88.3748315,114.064788 56.9644584,114.064788" id="Fill-2" fill="#000000" mask="url(#mask-4)"></path>
                    </g>
                </g>
            </g>
        </g>
    </g>
</svg>