<?xml version="1.0" encoding="UTF-8" standalone="no"?>
<svg width="114px" height="115px" viewBox="0 0 114 115" version="1.1" xmlns="http://www.w3.org/2000/svg" xmlns:xlink="http://www.w3.org/1999/xlink">
    <!-- Generator: Sketch 45.2 (43514) - http://www.bohemiancoding.com/sketch -->
    <title>OfficeEquipmentDealers</title>
    <desc>Created with Sketch.</desc>
    <defs>
        <polygon id="path-1" points="4 0 1408 0 1404 2571.71094 0 2571.71094"></polygon>
        <polygon id="path-3" points="0.000111876723 0.136489602 113.977768 0.136489602 113.977768 114.114258 0.000111876723 114.114258 0.000111876723 0.136489602"></polygon>
    </defs>
    <g id="Comps" stroke="none" stroke-width="1" fill="none" fill-rule="evenodd">
        <g id="Desktop---Midwest-Copier-Exchange---Homepage" transform="translate(-875.000000, -3339.000000)">
            <g id="Group-Copy-2" transform="translate(-4.000000, 1249.000000)">
                <mask id="mask-2" fill="white">
                    <use xlink:href="#path-1"></use>
                </mask>
                <g id="Duplicate-control"></g>
            </g>
            <g id="Icons" transform="translate(179.000000, 3251.000000)">
                <g id="Page-1" transform="translate(696.000000, 88.000000)">
                    <g id="Group-3" transform="translate(0.000000, 0.422894)">
                        <mask id="mask-4" fill="white">
                            <use xlink:href="#path-3"></use>
                        </mask>
                        <g id="Clip-2"></g>
                        <path d="M56.988996,110.758068 C27.4160623,110.758068 3.35641358,86.6984192 3.35641358,57.1254856 C3.35641358,27.5519925 27.4160623,3.4923438 56.988996,3.4923438 C86.5619296,3.4923438 110.621578,27.5519925 110.621578,57.1254856 C110.621578,86.6984192 86.5619296,110.758068 56.988996,110.758068 M56.988996,0.136042096 C25.5650619,0.136042096 0.000111876723,25.7015515 0.000111876723,57.1254856 C0.000111876723,88.5494196 25.5650619,114.11437 56.988996,114.11437 C88.41293,114.11437 113.97788,88.5494196 113.97788,57.1254856 C113.97788,25.7015515 88.41293,0.136042096 56.988996,0.136042096" id="Fill-1" fill="#000000" mask="url(#mask-4)"></path>
                    </g>
                    <path d="M88.363089,68.227796 C88.363089,71.5678756 85.6456033,74.2853612 82.3055238,74.2853612 L74.5966581,74.2853612 L74.5966581,65.8951663 C74.5966581,64.1851306 73.2054711,62.7939435 71.4954354,62.7939435 L40.8216348,62.7939435 C39.111599,62.7939435 37.720412,64.1851306 37.720412,65.8951663 L37.720412,74.2853612 L30.0115464,74.2853612 C26.6714668,74.2853612 23.9539812,71.5678756 23.9539812,68.227796 L23.9539812,47.3157989 C23.9539812,43.9762787 26.6714668,41.258793 30.0115464,41.258793 L40.746118,41.258793 L71.5709522,41.258793 L82.3055238,41.258793 C85.6456033,41.258793 88.363089,43.9762787 88.363089,47.3157989 L88.363089,68.227796 Z M72.3591237,84.9130905 C72.3591237,85.389126 71.9720302,85.7767788 71.4954354,85.7767788 L40.8216348,85.7767788 C40.3455993,85.7767788 39.9579464,85.389126 39.9579464,84.9130905 L39.9579464,76.5228956 L39.9579464,75.4041284 L39.9579464,65.8951663 C39.9579464,65.4191308 40.3455993,65.031478 40.8216348,65.031478 L71.4954354,65.031478 C71.9720302,65.031478 72.3591237,65.4191308 72.3591237,65.8951663 L72.3591237,75.4041284 L72.3591237,76.5228956 L72.3591237,84.9130905 Z M39.9579464,38.2330871 L39.9579464,27.137713 C39.9579464,26.7036313 40.3114769,26.3501009 40.746118,26.3501009 L71.5709522,26.3501009 C72.0055932,26.3501009 72.3591237,26.7036313 72.3591237,27.137713 L72.3591237,38.2330871 C72.3591237,38.6604561 71.9983212,39.0212586 71.5709522,39.0212586 L40.746118,39.0212586 C40.3187489,39.0212586 39.9579464,38.6604561 39.9579464,38.2330871 L39.9579464,38.2330871 Z M82.3055238,39.0212586 L74.4886971,39.0212586 C74.5569419,38.769536 74.5966581,38.5066257 74.5966581,38.2330871 L74.5966581,27.137713 C74.5966581,25.4696311 73.2395935,24.1125664 71.5709522,24.1125664 L40.746118,24.1125664 C39.0774766,24.1125664 37.720412,25.4696311 37.720412,27.137713 L37.720412,38.2330871 C37.720412,38.5066257 37.7601282,38.769536 37.828373,39.0212586 L30.0115464,39.0212586 C25.4374665,39.0212586 21.7164467,42.7422784 21.7164467,47.3157989 L21.7164467,68.227796 C21.7164467,72.8018758 25.4374665,76.5228956 30.0115464,76.5228956 L37.720412,76.5228956 L37.720412,84.9130905 C37.720412,86.6231262 39.111599,88.0143133 40.8216348,88.0143133 L71.4954354,88.0143133 C73.2054711,88.0143133 74.5966581,86.6231262 74.5966581,84.9130905 L74.5966581,76.5228956 L82.3055238,76.5228956 C86.8796036,76.5228956 90.6006234,72.8018758 90.6006234,68.227796 L90.6006234,47.3157989 C90.6006234,42.7422784 86.8796036,39.0212586 82.3055238,39.0212586 L82.3055238,39.0212586 Z" id="Fill-4" fill="#000000"></path>
                    <path d="M78.5567026,52.6503048 C77.4535981,52.6503048 76.5557874,51.7530535 76.5557874,50.6493896 C76.5557874,49.5462851 77.4535981,48.6490338 78.5567026,48.6490338 C79.6598071,48.6490338 80.5570584,49.5462851 80.5570584,50.6493896 C80.5570584,51.7530535 79.6598071,52.6503048 78.5567026,52.6503048 M78.5567026,46.4114993 C76.2195978,46.4114993 74.3182529,48.3128442 74.3182529,50.6493896 C74.3182529,52.9864943 76.2195978,54.8878392 78.5567026,54.8878392 C80.8938073,54.8878392 82.7945929,52.9864943 82.7945929,50.6493896 C82.7945929,48.3128442 80.8938073,46.4114993 78.5567026,46.4114993" id="Fill-6" fill="#000000"></path>
                    <path d="M67.3256221,68.6943219 L44.9077643,68.6943219 C44.2896454,68.6943219 43.788997,69.1955296 43.788997,69.8130891 C43.788997,70.4306487 44.2896454,70.9318564 44.9077643,70.9318564 L67.3256221,70.9318564 C67.9431816,70.9318564 68.4443893,70.4306487 68.4443893,69.8130891 C68.4443893,69.1955296 67.9431816,68.6943219 67.3256221,68.6943219" id="Fill-8" fill="#000000"></path>
                    <path d="M67.3256221,74.2851374 L44.9077643,74.2851374 C44.2896454,74.2851374 43.788997,74.7863451 43.788997,75.4039046 C43.788997,76.0214642 44.2896454,76.5226719 44.9077643,76.5226719 L67.3256221,76.5226719 C67.9431816,76.5226719 68.4443893,76.0214642 68.4443893,75.4039046 C68.4443893,74.7863451 67.9431816,74.2851374 67.3256221,74.2851374" id="Fill-10" fill="#000000"></path>
                    <path d="M67.3256221,79.8757292 L44.9077643,79.8757292 C44.2896454,79.8757292 43.788997,80.3769369 43.788997,80.9944964 C43.788997,81.6120559 44.2896454,82.1132636 44.9077643,82.1132636 L67.3256221,82.1132636 C67.9431816,82.1132636 68.4443893,81.6120559 68.4443893,80.9944964 C68.4443893,80.3769369 67.9431816,79.8757292 67.3256221,79.8757292" id="Fill-12" fill="#000000"></path>
                </g>
            </g>
        </g>
    </g>
</svg>