<?xml version="1.0" encoding="utf-8"?>
<!-- Generator: Adobe Illustrator 21.1.0, SVG Export Plug-In . SVG Version: 6.00 Build 0)  -->
<svg version="1.1" id="Layer_1" xmlns="http://www.w3.org/2000/svg" xmlns:xlink="http://www.w3.org/1999/xlink" x="0px" y="0px"
	 viewBox="0 0 2752 236" style="enable-background:new 0 0 2752 236;" xml:space="preserve">
<style type="text/css">
	.st0{fill:#FFFFFF;}
	.st1{fill:#E63C2F;}
</style>
<g>
	<g>
		<path class="st0" d="M60.2,88.2c0-9.1,5-13.1,12.9-13.1h45.5c17.7,0,22.8,10.3,22.8,28c0,14.9-3.7,29.3-19.4,29.3H116v0.6
			l27.1,27.3h-26.9L97,138.1c-3.2-3.5-7.7-7.3-7.7-12.1v-1.9c0-6.2,4.6-7.7,12.5-7.7h7.2c8.2,0,10-4.1,10-12.7
			c0-8.8-2.6-11.7-10.8-11.7H87.9c-4.3,0-5.7,1.5-5.7,5.7v62.4H60.2V88.2z"/>
		<path class="st0" d="M237.2,91.6h-43.8c-4.3,0-5.7,1.5-5.7,5.7v11.8h48.5v15.8h-48.5v13c0,4.3,1.5,5.7,5.7,5.7h44.3v16.6h-59
			c-7.9,0-12.9-3.9-12.9-13v-59c0-9.1,5-13.1,12.9-13.1h58.6V91.6z"/>
		<path class="st0" d="M332.9,150.4c-2.3,6.5-4.6,10.8-14.2,10.8c-9.7,0-12.1-4.4-14.4-10.8l-17.4-48.9c-0.5-1.3-1.1-2.9-1.8-2.9
			c-1.2,0-1.2,2.1-1.2,2.7l0.6,59h-21.9v-73c0-11.4,10.8-13.1,17.3-13.1c8.5,0,15.1,3,18.5,12.5l17.9,49.2c0.5,1.5,1.5,3.5,2.4,3.5
			c1,0,1.9-2.1,2.4-3.5L339,86.6c3.4-9.5,10-12.5,18.4-12.5c14,0,17.4,6.6,17.4,13.1v73h-21.9l0.7-59c0-1.7-0.6-2.7-1.3-2.7
			c-0.6,0-1.2,1.2-1.8,2.9L332.9,150.4z"/>
		<path class="st0" d="M426.3,84c2.8-6.7,6.3-10,16.8-10c7.7,0,13.3,1.7,16.7,10l31.9,76.2h-23l-7.7-19.5h-35.9l-7.7,19.5h-22.9
			L426.3,84z M430.4,124.2h25.2l-10.8-27c-0.5-1.3-0.9-2.7-1.7-2.7c-0.9,0-1.3,1.3-1.8,2.7L430.4,124.2z"/>
		<path class="st0" d="M511.4,88.2c0-9.1,5-13.1,12.9-13.1h45.5c17.7,0,22.8,10.3,22.8,28c0,14.9-3.7,29.3-19.4,29.3h-6.1v0.6
			l27.1,27.3h-26.9l-19.2-22.2c-3.2-3.5-7.7-7.3-7.7-12.1v-1.9c0-6.2,4.6-7.7,12.5-7.7h7.2c8.2,0,10-4.1,10-12.7
			c0-8.8-2.6-11.7-10.8-11.7H539c-4.3,0-5.7,1.5-5.7,5.7v62.4h-21.9V88.2z"/>
		<path class="st0" d="M617.2,75h21.9v85.2h-21.9V75z M678,160.2l-30.7-32.7c-3-3.3-4.1-6.9-4.1-11c0-3.3,1.3-7.1,3.4-9.5l27.6-32
			h26.3l-33.2,35.1c-1.7,1.7-3.3,3.7-3.3,6.2c0,2.7,1.6,4.6,4.3,7.3l36.6,36.6H678z"/>
		<path class="st0" d="M794.2,91.6h-43.8c-4.3,0-5.7,1.5-5.7,5.7v11.8h48.5v15.8h-48.5v13c0,4.3,1.5,5.7,5.7,5.7h44.3v16.6h-59
			c-7.9,0-12.9-3.9-12.9-13v-59c0-9.1,5-13.1,12.9-13.1h58.6V91.6z"/>
		<path class="st0" d="M845.7,160.2V92.1H814V75h85.2v17h-31.7v68.2H845.7z"/>
	</g>
	<g>
		<path class="st1" d="M980.7,96.1c11.9,0,21.7,9.7,21.7,21.7c0,11.8-9.7,21.7-21.7,21.7c-11.9,0-21.7-9.9-21.7-21.7
			C959,105.8,968.8,96.1,980.7,96.1z"/>
	</g>
	<g>
		<path class="st0" d="M1068.5,88.2c0-9.1,5-13.1,12.9-13.1h45.5c17.7,0,22.8,10.3,22.8,28c0,14.9-3.7,29.3-19.4,29.3h-6.1v0.6
			l27.1,27.3h-26.9l-19.2-22.2c-3.2-3.5-7.7-7.3-7.7-12.1v-1.9c0-6.2,4.6-7.7,12.5-7.7h7.2c8.2,0,10-4.1,10-12.7
			c0-8.8-2.6-11.7-10.8-11.7h-20.3c-4.3,0-5.7,1.5-5.7,5.7v62.4h-21.9V88.2z"/>
		<path class="st0" d="M1245.5,91.6h-43.8c-4.3,0-5.7,1.5-5.7,5.7v11.8h48.5v15.8h-48.5v13c0,4.3,1.5,5.7,5.7,5.7h44.3v16.6h-59
			c-7.9,0-12.9-3.9-12.9-13v-59c0-9.1,5-13.1,12.9-13.1h58.6V91.6z"/>
		<path class="st0" d="M1303.9,160.2c-28.6,0-36.6-15.8-36.6-42.6c0-26.8,8-42.6,36.6-42.6h35.2v17h-24.3
			c-19.5,0-25.1,4.9-25.1,25.6s5.6,25.6,25.1,25.6h25.6v17H1303.9z"/>
		<path class="st0" d="M1428.5,75h23.4l-36.5,60.4v24.8h-21.8v-24.8L1357.2,75h23.4l24,40.8L1428.5,75z"/>
		<path class="st0" d="M1500.6,160.2c-28.6,0-36.6-15.8-36.6-42.6c0-26.8,8-42.6,36.6-42.6h35.2v17h-24.3
			c-19.5,0-25.1,4.9-25.1,25.6s5.6,25.6,25.1,25.6h25.6v17H1500.6z"/>
		<path class="st0" d="M1572.3,160.2c-7.9,0-12.9-3.9-12.9-13V75h21.9v62.5c0,4.3,1.5,5.7,5.7,5.7h43.8v17H1572.3z"/>
		<path class="st0" d="M1723.1,91.6h-43.8c-4.3,0-5.7,1.5-5.7,5.7v11.8h48.5v15.8h-48.5v13c0,4.3,1.5,5.7,5.7,5.7h44.3v16.6h-59
			c-7.9,0-12.9-3.9-12.9-13v-59c0-9.1,5-13.1,12.9-13.1h58.6V91.6z"/>
	</g>
	<g>
		<path class="st1" d="M1809.2,96.1c11.9,0,21.7,9.7,21.7,21.7c0,11.8-9.7,21.7-21.7,21.7s-21.7-9.9-21.7-21.7
			C1787.5,105.8,1797.3,96.1,1809.2,96.1z"/>
	</g>
	<g>
		<path class="st0" d="M1897,88.2c0-9.1,5-13.1,12.9-13.1h45.5c17.7,0,22.8,10.3,22.8,28c0,14.9-3.7,29.3-19.4,29.3h-6.1v0.6
			l27.1,27.3H1953l-19.2-22.2c-3.2-3.5-7.7-7.3-7.7-12.1v-1.9c0-6.2,4.6-7.7,12.5-7.7h7.2c8.2,0,10-4.1,10-12.7
			c0-8.8-2.6-11.7-10.8-11.7h-20.3c-4.3,0-5.7,1.5-5.7,5.7v62.4H1897V88.2z"/>
		<path class="st0" d="M2074,91.6h-43.8c-4.3,0-5.7,1.5-5.7,5.7v11.8h48.5v15.8h-48.5v13c0,4.3,1.5,5.7,5.7,5.7h44.3v16.6h-59
			c-7.9,0-12.9-3.9-12.9-13v-59c0-9.1,5-13.1,12.9-13.1h58.6V91.6z"/>
		<path class="st0" d="M2112.1,160.2c-7.9,0-12.9-3.9-12.9-13V75h21.9v62.5c0,4.3,1.5,5.7,5.7,5.7h43.8v17H2112.1z"/>
		<path class="st0" d="M2279.5,117.6c0,35.5-11.8,43.6-45.3,43.6c-33.5,0-45.3-8-45.3-43.6c0-35.4,11.8-43.6,45.3-43.6
			C2267.7,74.1,2279.5,82.2,2279.5,117.6z M2234.2,144.2c17.8,0,22.9-6.5,22.9-26.5c0-20.1-5.1-26.5-22.9-26.5s-22.9,6.5-22.9,26.5
			C2211.3,137.7,2216.4,144.2,2234.2,144.2z"/>
		<path class="st0" d="M2338,160.2c-28.6,0-36.6-15.8-36.6-42.6c0-26.8,8-42.6,36.6-42.6h35.2v17h-24.3c-19.5,0-25.1,4.9-25.1,25.6
			s5.6,25.6,25.1,25.6h25.6v17H2338z"/>
		<path class="st0" d="M2423.9,84c2.8-6.7,6.3-10,16.8-10c7.7,0,13.3,1.7,16.7,10l31.9,76.2h-23l-7.7-19.5h-35.9l-7.7,19.5h-22.9
			L2423.9,84z M2428,124.2h25.2l-10.8-27c-0.5-1.3-0.9-2.7-1.7-2.7c-0.9,0-1.3,1.3-1.8,2.7L2428,124.2z"/>
		<path class="st0" d="M2523.6,160.2V92.1h-31.7V75h85.2v17h-31.7v68.2H2523.6z"/>
		<path class="st0" d="M2669.5,91.6h-43.8c-4.3,0-5.7,1.5-5.7,5.7v11.8h48.5v15.8H2620v13c0,4.3,1.5,5.7,5.7,5.7h44.3v16.6h-59
			c-7.9,0-12.9-3.9-12.9-13v-59c0-9.1,5-13.1,12.9-13.1h58.6V91.6z"/>
	</g>
</g>
</svg>
